<?xml version="1.0" encoding="utf-8"?>
<!-- Generator: Adobe Illustrator 21.0.2, SVG Export Plug-In . SVG Version: 6.00 Build 0)  -->
<svg version="1.1" id="Calque_1" xmlns="http://www.w3.org/2000/svg" xmlns:xlink="http://www.w3.org/1999/xlink" x="0px" y="0px"
	 viewBox="0 0 55.9 41.9" style="enable-background:new 0 0 55.9 41.9;" xml:space="preserve">
<style type="text/css">
	.st0{fill:#5A5F63;}
	.st1{fill:none;}
	.st2{display:none;fill:#E24D10;}
	.st3{fill:#F55024;stroke:#F55024;stroke-width:0.5;stroke-miterlimit:10;}
</style>
<title>OnlineMarketing</title>
<path class="st0" d="M5,1.1v28.4l-5.3,10.6c-0.3,0.6-0.1,1.2,0.5,1.5c0.2,0.1,0.3,0.1,0.5,0.1h53.6c0.6,0,1.2-0.5,1.2-1.1
	c0,0,0,0,0-0.1c0-0.2-0.1-0.4-0.2-0.6l-5.2-10.5V1.1C50.1,0.5,49.6,0,49,0l0,0H6.1C5.5,0,5,0.5,5,1.1L5,1.1z M20.8,39l0.6-1.1h12.3
	l0.6,1.2L20.8,39z M7.3,2.3h40.6v26.4H7.3V2.3z M48.3,30.9l4.2,8.6H37l-1.6-3.2c-0.2-0.4-0.6-0.6-1-0.6H20.7c-0.4,0-0.8,0.2-1,0.6
	l-1.6,3.2H2.6l4.3-8.6H48.3z"/>
<rect class="st1" width="55.9" height="41.9"/>
<path class="st2" d="M29.2,14.3h-2.6c-0.9-0.1-1.7-0.9-1.6-1.8c0.1-0.8,0.7-1.5,1.6-1.6h4.6c0.6,0,1.1-0.5,1.1-1.1s-0.5-1.1-1.1-1.1
	l0,0H29V7c0-0.6-0.5-1.1-1.1-1.1S26.8,6.4,26.8,7v1.6h-0.2c-2.2,0-4,1.8-4,4s1.8,4,4,4h2.6c0.9-0.1,1.8,0.6,1.8,1.6S30.4,20,29.5,20
	c-0.1,0-0.2,0-0.3,0h-4.7c-0.6,0-1.1,0.5-1.1,1.1s0.5,1.1,1.1,1.1l0,0h2.2v1.6c0,0.6,0.5,1.1,1.1,1.1s1.1-0.5,1.1-1.1v-1.6h0.2
	c2.2,0,4-1.8,4-4S31.4,14.3,29.2,14.3L29.2,14.3z"/>
<path class="st3" d="M23,8.4c-2.5,0-4.6,2-4.6,4.6c0,1.3,0.6,2.5,1.5,3.4c-2.7,1.2-4.5,2.9-4.5,6c0,0.2,0.2,0.3,0.3,0.3h4.8
	c0.2,0,0.1-0.2,0.1-0.3c0-0.2,0-0.3-0.1-0.3h-4.4c0.1-2.7,1.9-4.1,4.5-5.1c0.7,0.5,1.5,0.7,2.4,0.7c0.2,0,0.3-0.2,0.3-0.3
	c0-0.2-0.2-0.3-0.3-0.3c-2.1,0-3.9-1.7-3.9-3.9s1.7-3.9,3.9-3.9c0.4,0,0.9,0.1,1.3,0.2c0.2,0.1,0.4,0,0.4-0.2c0.1-0.2,0-0.4-0.2-0.4
	C24.1,8.5,23.6,8.4,23,8.4L23,8.4z M27.5,8.4c-0.4,0-0.8,0.1-1.1,0.1c-2,0.5-3.4,2.3-3.4,4.4c0,1.3,0.6,2.5,1.5,3.4
	c-2.7,1.2-4.5,3.9-4.5,7c0,0.2,0.2,0.3,0.3,0.3h14.5h0.1c0.1-0.1,0.2-0.2,0.2-0.3c0-3-1.8-5.8-4.5-7c0.9-0.8,1.5-2,1.5-3.4
	c0-2-1.4-3.8-3.2-4.4C28.5,8.4,28,8.4,27.5,8.4L27.5,8.4z M32.1,8.4c-0.5,0-1,0.1-1.5,0.3c-0.2,0.1-0.3,0.3-0.2,0.4
	c0.1,0.2,0.3,0.3,0.4,0.2c0.4-0.1,0.8-0.2,1.3-0.2c2.1,0,3.9,1.7,3.9,3.9c0,2.1-1.7,3.9-3.9,3.9c-0.2,0-0.3,0.2-0.3,0.3
	c0,0.2,0.2,0.3,0.3,0.3c0.9,0,1.7-0.3,2.4-0.7c2.6,1,4.3,2.4,4.5,5.1h-4.4c-0.2,0-0.5,0.2-0.5,0.3s0.4,0.3,0.5,0.3h4.8
	c0.2,0,0.3-0.2,0.3-0.3c0-3-1.8-4.8-4.5-6c0.9-0.8,1.5-2,1.5-3.4C36.7,10.4,34.7,8.4,32.1,8.4L32.1,8.4z M27.5,9.1
	c0.1,0,0.2,0,0.2,0c2,0.1,3.6,1.8,3.6,3.9s-1.6,3.7-3.6,3.9c-0.1,0-0.2,0-0.2,0c-0.1,0-0.2,0-0.2,0c-2-0.1-3.6-1.8-3.6-3.9
	s1.6-3.7,3.6-3.9C27.4,9.1,27.5,9.1,27.5,9.1z M25.1,16.8c0.4,0.2,0.7,0.4,1.1,0.5h0.1c0.3,0.1,0.6,0.1,0.9,0.1c0.1,0,0.2,0,0.2,0
	c0.1,0,0.2,0,0.2,0c0.3,0,0.6-0.1,0.8-0.1c0.1,0,0.1,0,0.2,0c0.4-0.1,0.8-0.3,1.1-0.5c2.6,1,4.3,3.4,4.5,6.1H20.6
	C20.8,20.2,22.5,17.7,25.1,16.8L25.1,16.8z"/>
</svg>
