<svg id="Calque_1" xmlns="http://www.w3.org/2000/svg" viewBox="0 0 54.8 49.8"><style>.st0{fill:#5a5f63}.st1{fill:#f55024}</style><title>eCommerce</title><path class="st0" d="M23.7 48.7c0-.6-.5-1.1-1.1-1.1H7.1c-2.7 0-4.9-2.2-4.9-4.9V10.8h6.7V15c0 .6.5 1.1 1.1 1.1s1.1-.5 1.1-1.1v-4.2h13.3V15c0 .6.5 1.1 1.1 1.1s1.1-.5 1.1-1.1v-4.2h6.7V13c0 .6.5 1.1 1.1 1.1s1.1-.5 1.1-1.1V9.6c0-.6-.5-1.1-1.1-1.1h-7.8c-.2-4.9-4.3-8.8-9.2-8.6C12.7.1 9 3.8 8.8 8.5H1.1C.5 8.5 0 9 0 9.6v33c0 3.9 3.2 7.1 7.1 7.1h15.4c.7.1 1.2-.4 1.2-1zM17.8 2.2c3.5 0 6.5 2.8 6.7 6.3H11.1c.2-3.5 3.2-6.3 6.7-6.3z"/><path class="st1" d="M33.1 22.3v1.3H27c-.6 0-1.1.5-1.1 1.1v19.4c0 3.1 2.5 5.7 5.7 5.7h17.6c3.1 0 5.7-2.5 5.7-5.7V24.7c0-.6-.5-1.1-1.1-1.1h-6.1v-1.3c.1-4-3-7.4-7-7.5s-7.4 3-7.5 7c-.1.1-.1.3-.1.5zm13.4 7.3c.6 0 1.1-.5 1.1-1.1v-2.8h5V44c0 1.9-1.6 3.5-3.5 3.5H31.6c-1.9 0-3.5-1.6-3.5-3.5V25.8h5v2.8c-.1.6.4 1.2 1 1.2.6.1 1.2-.4 1.2-1v-3h10.1v2.8c0 .5.5 1 1.1 1zm-1.1-7.3v1.3H35.3v-1.3c0-2.8 2.3-5.1 5-5.1 2.8 0 5.1 2.3 5.1 5.1z"/></svg>