<?xml version="1.0" encoding="utf-8"?>
<!-- Generator: Adobe Illustrator 22.0.0, SVG Export Plug-In . SVG Version: 6.00 Build 0)  -->
<svg version="1.1" id="efelle_creative" xmlns="http://www.w3.org/2000/svg" xmlns:xlink="http://www.w3.org/1999/xlink" x="0px"
	 y="0px" viewBox="0 0 551 275" style="enable-background:new 0 0 551 275;" xml:space="preserve">
<style type="text/css">
	.st0{fill:#F05128;}
	.st1{fill:#5A5F63;}
</style>
<g>
	<path class="st0" d="M103.6,88.8c-8.8-5.5-18.7-8.2-29.2-8.2c-9.8,0-19,2.4-27.5,7.2c-8.5,4.8-15.3,11.3-20.2,19.6
		c-4.9,8.2-7.4,17.2-7.4,26.7s2.5,18.5,7.5,26.8c4.9,8.3,11.7,14.9,20.2,19.6c8.4,4.7,17.6,7.1,27.3,7.1c11.9,0,22.8-3.4,32.4-10.2
		c4.2-3,6.1-4.8,6.1-7.3c0-3.1-2.3-5.4-5.4-5.4c-2.2,0-3.7,1.4-4.3,1.9c-3.6,3.1-8,5.5-13.3,7.4s-10.6,2.8-15.5,2.8
		c-7.7,0-15-1.9-21.9-5.8c-6.8-3.8-12.3-9.2-16.3-15.8s-6-13.7-6-21.1c0-7.6,2-14.7,6-21.3c4-6.6,9.5-11.9,16.2-15.7
		c6.7-3.8,14.1-5.7,22-5.7c9.2,0,17.7,2.6,25.3,7.7c6.7,4.5,11.7,10.3,15,17.5c1.3,2.7,2.2,5.3,2.9,7.9c0.3,1.2,0.5,2.4,0.7,3.7
		H42.5c-3.7,0-5.7,2.7-5.7,5.4c0,3.2,2.4,5.5,5.7,5.5h80.2c3.9,0,6.6-2.6,6.6-6.3c0-7.3-1.8-14.6-5.3-21.6
		C119.3,101.8,112.5,94.3,103.6,88.8z"/>
	<path class="st0" d="M293.6,88.8c-8.8-5.5-18.7-8.2-29.2-8.2c-9.8,0-19,2.4-27.5,7.2c-8.5,4.8-15.3,11.3-20.2,19.6
		c-4.9,8.2-7.4,17.2-7.4,26.7s2.5,18.5,7.5,26.8c4.9,8.3,11.7,14.9,20.2,19.6c8.4,4.7,17.6,7.1,27.3,7.1c11.9,0,22.8-3.4,32.4-10.2
		c4.2-3,6.1-4.8,6.1-7.3c0-3.1-2.3-5.4-5.4-5.4c-2.2,0-3.7,1.4-4.3,1.9c-3.6,3.1-8,5.5-13.3,7.4s-10.6,2.8-15.5,2.8
		c-7.7,0-15-1.9-21.9-5.8c-6.8-3.8-12.3-9.2-16.3-15.8s-6-13.7-6-21.1c0-7.6,2-14.7,6-21.3c4-6.6,9.5-11.9,16.2-15.7
		c6.7-3.8,14.1-5.7,22-5.7c9.2,0,17.7,2.6,25.3,7.7c6.7,4.5,11.7,10.3,15,17.5c1.3,2.7,2.2,5.3,2.9,7.9c0.3,1.2,0.5,2.4,0.7,3.7
		h-75.7c-3.7,0-5.7,2.7-5.7,5.4c0,3.2,2.4,5.5,5.7,5.5h80.2c3.9,0,6.6-2.6,6.6-6.3c0-7.3-1.8-14.6-5.3-21.6
		C309.3,101.8,302.5,94.3,293.6,88.8z"/>
	<path class="st0" d="M489,111.2c-4.7-9.4-11.5-16.9-20.4-22.3c-8.8-5.5-18.7-8.2-29.2-8.2c-9.8,0-19,2.4-27.5,7.2
		c-8.5,4.8-15.3,11.3-20.2,19.6c-4.9,8.2-7.4,17.2-7.4,26.7s2.5,18.5,7.5,26.8c4.9,8.3,11.7,14.9,20.2,19.6
		c8.4,4.7,17.6,7.1,27.3,7.1c11.9,0,22.8-3.4,32.4-10.2c4.2-3,6.1-4.8,6.1-7.3c0-3.1-2.3-5.4-5.4-5.4c-2.2,0-3.7,1.4-4.3,1.9
		c-3.6,3.1-8,5.5-13.3,7.4s-10.6,2.8-15.5,2.8c-7.7,0-15-1.9-21.9-5.8c-6.8-3.8-12.3-9.2-16.3-15.8s-6-13.7-6-21.1
		c0-7.6,2-14.7,6-21.3c4-6.6,9.5-11.9,16.2-15.7c6.7-3.8,14.1-5.7,22-5.7c9.2,0,17.7,2.6,25.3,7.7c6.7,4.5,11.7,10.3,15,17.5
		c1.3,2.7,2.2,5.3,2.9,7.9c0.3,1.2,0.5,2.4,0.7,3.7h-75.7c-3.7,0-5.7,2.7-5.7,5.4c0,3.2,2.4,5.5,5.7,5.5h80.2c3.9,0,6.6-2.6,6.6-6.3
		C494.3,125.5,492.5,118.2,489,111.2z"/>
	<path class="st0" d="M154.6,86.6c2.1-5.7,5.7-10.8,10.7-15.3c4-3.6,8.5-6.3,13.1-8.2c5.2-2.1,10.8-3.1,16.8-3.1
		c3.9,0,5.9-2.8,5.9-5.5c0-3.1-2.3-5.4-5.4-5.4h-1.3c-7.5,0-14.8,1.5-21.4,4.4c-5.9,2.6-11.5,6.3-16.4,11.2
		c-5.7,5.5-9.9,11.8-12.4,18.6c-2.4,6.7-3.7,14.9-3.7,24.4V252c0,3.3,2.3,5.7,5.4,5.7s5.4-2.4,5.4-5.7V139.6h44.1
		c3.3,0,5.7-2.3,5.7-5.4s-2.4-5.4-5.7-5.4h-44.1V110C151.4,100.3,152.5,92.4,154.6,86.6z"/>
	<path class="st0" d="M337.5,11.9c-3.2,0-5.5,2.4-5.5,5.7v37.1v7.5V182v0.6c0.5,3.6,3.1,5.2,5.5,5.2c2.7,0,5.4-2,5.4-5.7V62.2v-7.5
		V17.6C343,13.9,340.2,11.9,337.5,11.9z"/>
	<path class="st0" d="M365.5,11.9c-3.2,0-5.5,2.4-5.5,5.7v37.1v7.5V182v0.6c0.5,3.6,3.1,5.2,5.5,5.2c2.7,0,5.4-2,5.4-5.7V62.2v-7.5
		V17.6C371,13.9,368.2,11.9,365.5,11.9z"/>
</g>
<g>
	<path class="st1" d="M355.5,238.7l-2.3,1.4c-2-2.7-4.8-4-8.2-4c-2.8,0-5.1,0.9-6.9,2.7s-2.8,4-2.8,6.5c0,1.7,0.4,3.2,1.3,4.7
		c0.8,1.5,2,2.6,3.5,3.4c1.5,0.8,3.1,1.2,5,1.2c3.4,0,6.1-1.3,8.2-4l2.3,1.5c-1.1,1.6-2.6,2.9-4.4,3.8s-3.9,1.4-6.3,1.4
		c-3.6,0-6.6-1.1-9-3.4c-2.4-2.3-3.6-5.1-3.6-8.4c0-2.2,0.6-4.3,1.7-6.2s2.6-3.4,4.6-4.4c1.9-1.1,4.1-1.6,6.5-1.6
		c1.5,0,3,0.2,4.4,0.7s2.6,1.1,3.6,1.8C354,236.6,354.8,237.6,355.5,238.7z"/>
</g>
<g>
	<path class="st1" d="M365.4,234h3v3.3c0.9-1.3,1.8-2.3,2.8-2.9c1-0.7,2-1,3.1-1c0.8,0,1.7,0.3,2.6,0.8l-1.5,2.5
		c-0.6-0.3-1.1-0.4-1.6-0.4c-1,0-1.9,0.4-2.8,1.2s-1.6,2.1-2.1,3.7c-0.4,1.3-0.5,3.9-0.5,7.9v7.7h-3V234z"/>
</g>
<g>
	<path class="st1" d="M441,234v22.8h-2.9v-3.9c-1.2,1.5-2.6,2.6-4.1,3.4s-3.2,1.1-5,1.1c-3.2,0-6-1.2-8.3-3.5
		c-2.3-2.3-3.4-5.2-3.4-8.6c0-3.3,1.2-6.1,3.5-8.4c2.3-2.3,5.1-3.5,8.3-3.5c1.9,0,3.6,0.4,5.1,1.2s2.9,2,4,3.6V234H441z
		 M429.3,236.2c-1.6,0-3.1,0.4-4.5,1.2s-2.5,1.9-3.3,3.4s-1.2,3-1.2,4.6s0.4,3.1,1.2,4.6c0.8,1.5,1.9,2.6,3.3,3.4
		c1.4,0.8,2.9,1.2,4.5,1.2s3.1-0.4,4.6-1.2c1.4-0.8,2.5-1.9,3.3-3.3c0.8-1.4,1.2-2.9,1.2-4.7c0-2.6-0.9-4.9-2.6-6.6
		C434,237.1,431.8,236.2,429.3,236.2z"/>
</g>
<g>
	<path class="st1" d="M455.6,225.5h2.9v8.5h4.7v2.5h-4.7v20.3h-2.9v-20.3h-4V234h4V225.5z"/>
</g>
<g>
	<path class="st1" d="M474.1,224.6c0.7,0,1.2,0.2,1.7,0.7s0.7,1,0.7,1.7s-0.2,1.2-0.7,1.7s-1,0.7-1.7,0.7s-1.2-0.2-1.7-0.7
		s-0.7-1-0.7-1.7s0.2-1.2,0.7-1.7S473.4,224.6,474.1,224.6z M472.6,234h2.9v22.8h-2.9V234z"/>
</g>
<g>
	<path class="st1" d="M484.9,234h3.1l7.7,16.7l7.6-16.7h3.1L496,256.8h-0.5L484.9,234z"/>
</g>
<path class="st1" d="M536.7,240.1c-1-2.1-2.5-3.8-4.5-5c-1.9-1.2-4.1-1.9-6.4-1.9c-2.2,0-4.2,0.5-6,1.6c-1.9,1.1-3.3,2.6-4.4,4.4
	c-1.1,1.9-1.6,3.9-1.6,6s0.5,4.2,1.6,6c1.1,1.9,2.6,3.4,4.4,4.4c1.9,1.1,3.9,1.6,6,1.6c2.6,0,5-0.8,7.1-2.3c0.8-0.6,1.4-1.1,1.4-1.8
	c0-0.8-0.6-1.4-1.4-1.4c-0.4,0-0.8,0.2-1.1,0.5c-0.8,0.7-1.7,1.2-2.8,1.6c-2.9,1-5.5,0.7-7.9-0.6c-1.5-0.8-2.6-2-3.4-3.4
	c-0.8-1.4-1.3-3-1.3-4.6c0-1.7,0.4-3.2,1.3-4.7c0.8-1.4,2-2.6,3.4-3.4c1.4-0.8,3-1.2,4.6-1.2c2,0,3.7,0.5,5.3,1.7
	c1.4,1,2.5,2.3,3.2,3.8c0.3,0.6,0.5,1.2,0.6,1.7c0,0.2,0.1,0.4,0.1,0.6h-16.1c-0.8,0-1.4,0.6-1.4,1.4c0,0.8,0.6,1.4,1.4,1.4h17.3
	c1,0,1.6-0.6,1.6-1.6C537.8,243.3,537.4,241.7,536.7,240.1z"/>
<path class="st1" d="M407.7,240.1c-1-2.1-2.5-3.8-4.5-5c-1.9-1.2-4.1-1.9-6.4-1.9c-2.2,0-4.2,0.5-6,1.6c-1.9,1.1-3.3,2.6-4.4,4.4
	c-1.1,1.9-1.6,3.9-1.6,6s0.5,4.2,1.6,6c1.1,1.9,2.6,3.4,4.4,4.4c1.9,1.1,3.9,1.6,6,1.6c2.6,0,5-0.8,7.1-2.3c0.8-0.6,1.4-1.1,1.4-1.8
	c0-0.8-0.6-1.4-1.4-1.4c-0.4,0-0.8,0.2-1.1,0.5c-0.8,0.7-1.7,1.2-2.8,1.6c-2.9,1-5.5,0.7-7.9-0.6c-1.5-0.8-2.6-2-3.4-3.4
	s-1.3-3-1.3-4.6c0-1.7,0.4-3.2,1.3-4.7c0.8-1.4,2-2.6,3.4-3.4c1.4-0.8,3-1.2,4.6-1.2c2,0,3.7,0.5,5.3,1.7c1.4,1,2.5,2.3,3.2,3.8
	c0.3,0.6,0.5,1.2,0.6,1.7c0,0.2,0.1,0.4,0.1,0.6h-16.1c-0.8,0-1.4,0.6-1.4,1.4c0,0.8,0.6,1.4,1.4,1.4h17.3c1,0,1.6-0.6,1.6-1.6
	C408.8,243.3,408.4,241.7,407.7,240.1z"/>
</svg>
