<?xml version="1.0" encoding="utf-8"?>
<!-- Generator: Adobe Illustrator 20.1.0, SVG Export Plug-In . SVG Version: 6.00 Build 0)  -->
<svg version="1.1" id="efelle_creative" xmlns="http://www.w3.org/2000/svg" xmlns:xlink="http://www.w3.org/1999/xlink" x="0px"
	 y="0px" viewBox="0 0 551 275" style="enable-background:new 0 0 551 275;" xml:space="preserve">
<style type="text/css">
	.st0{fill:#FFFFFF;}
</style>
<path class="st0" d="M123.9,111.1c-4.6-9.3-11.4-16.8-20.4-22.3c-8.8-5.5-18.6-8.2-29.2-8.2c-9.7,0-19,2.4-27.5,7.1
	c-8.5,4.8-15.3,11.3-20.2,19.6c-4.9,8.4-7.4,17.4-7.4,26.7c0,9.4,2.5,18.4,7.5,26.8c4.9,8.3,11.7,14.9,20.2,19.6
	c8.4,4.7,17.6,7.1,27.4,7.1c11.9,0,22.8-3.4,32.4-10.2c3.9-2.8,6.1-4.5,6.1-7.3c0-3.1-2.2-5.3-5.4-5.3c-2.2,0-3.7,1.3-4.3,1.9
	c-3.7,3.1-8.1,5.6-13.3,7.3c-5.3,1.9-10.3,2.8-15.5,2.8c-7.7,0-15-1.9-21.8-5.8c-6.7-3.8-12.2-9.1-16.2-15.8c-4-6.6-6-13.7-6-21.1
	c0-7.7,2-14.6,6-21.3c4-6.7,9.3-11.8,16.1-15.7c6.8-3.8,14.2-5.7,22-5.7c9.2,0,17.7,2.6,25.3,7.7c6.7,4.4,11.7,10.3,15,17.5
	c1.2,2.6,2.2,5.3,2.8,7.9c0.3,1.2,0.5,2.4,0.6,3.7H42.5c-3.2,0-5.6,2.3-5.6,5.4c0,3.2,2.3,5.5,5.6,5.5h80.1c4.6,0,6.6-3.1,6.6-6.2
	C129.2,125.5,127.5,118.4,123.9,111.1z"/>
<path class="st0" d="M313.9,111.1c-4.6-9.3-11.4-16.8-20.4-22.3c-8.8-5.5-18.6-8.2-29.2-8.2c-9.7,0-19,2.4-27.5,7.1
	c-8.5,4.8-15.3,11.3-20.2,19.6c-4.9,8.4-7.4,17.4-7.4,26.7c0,9.4,2.5,18.4,7.5,26.8c4.9,8.3,11.7,14.9,20.2,19.6
	c8.4,4.7,17.6,7.1,27.4,7.1c11.9,0,22.8-3.4,32.4-10.2c3.9-2.8,6.1-4.5,6.1-7.3c0-3.1-2.2-5.3-5.3-5.3c-2.2,0-3.7,1.3-4.3,1.9
	c-3.7,3.1-8.1,5.6-13.3,7.3c-5.3,1.9-10.3,2.8-15.5,2.8c-7.7,0-15-1.9-21.8-5.8c-6.7-3.8-12.2-9.1-16.2-15.8c-4-6.6-6-13.7-6-21.1
	c0-7.7,2-14.6,6-21.3c4-6.7,9.3-11.8,16.1-15.7c6.8-3.8,14.2-5.7,22-5.7c9.2,0,17.7,2.6,25.3,7.7c6.7,4.4,11.7,10.3,15,17.5
	c1.2,2.6,2.2,5.3,2.8,7.9c0.3,1.2,0.5,2.4,0.6,3.7h-75.8c-3.2,0-5.6,2.3-5.6,5.4c0,3.2,2.3,5.5,5.6,5.5h80.2c4.6,0,6.7-3.1,6.7-6.2
	C319.2,125.5,317.5,118.4,313.9,111.1z"/>
<path class="st0" d="M488.9,111.1c-4.6-9.3-11.4-16.8-20.4-22.3c-8.8-5.5-18.6-8.2-29.2-8.2c-9.7,0-19,2.4-27.5,7.1
	c-8.5,4.8-15.3,11.3-20.2,19.6c-4.9,8.4-7.4,17.4-7.4,26.7c0,9.4,2.5,18.4,7.5,26.8c4.9,8.3,11.7,14.9,20.2,19.6
	c8.4,4.7,17.6,7.1,27.4,7.1c11.9,0,22.8-3.4,32.4-10.2c3.9-2.8,6.1-4.5,6.1-7.3c0-3.1-2.2-5.3-5.3-5.3c-2.2,0-3.7,1.3-4.3,1.9
	c-3.7,3.1-8.1,5.6-13.3,7.3c-5.3,1.9-10.3,2.8-15.5,2.8c-7.7,0-15-1.9-21.8-5.8c-6.7-3.8-12.2-9.1-16.2-15.8c-4-6.6-6-13.7-6-21.1
	c0-7.6,2-14.6,6-21.3c4-6.7,9.3-11.8,16.1-15.7c6.8-3.8,14.2-5.7,22-5.7c9.2,0,17.7,2.6,25.3,7.7c6.7,4.4,11.7,10.3,15,17.5
	c1.2,2.6,2.2,5.3,2.8,7.9c0.3,1.2,0.5,2.4,0.6,3.7h-75.8c-3.2,0-5.7,2.3-5.7,5.4c0,3.2,2.3,5.5,5.7,5.5h80.2c4.6,0,6.7-3.1,6.7-6.2
	C494.2,125.5,492.5,118.4,488.9,111.1z"/>
<path class="st0" d="M195.5,128.8h-44.1V110c0-9.7,1.1-17.6,3.2-23.4c2-5.6,5.7-10.8,10.7-15.3c4-3.6,8.4-6.3,13.2-8.2
	c5.2-2.1,10.7-3.1,16.8-3.1c4,0,5.9-2.8,5.9-5.5c0-3.1-2.2-5.4-5.4-5.4h-1.4c-7.7,0-14.9,1.5-21.4,4.4c-6,2.6-11.3,6.2-16.4,11.1
	c-5.7,5.5-9.9,11.8-12.4,18.6c-2.5,6.7-3.7,14.7-3.7,24.4V252c0,3.3,2.2,5.7,5.4,5.7c3.2,0,5.5-2.4,5.5-5.7V139.6h44.1
	c3.3,0,5.6-2.2,5.6-5.4C201.1,131,198.8,128.8,195.5,128.8z"/>
<path class="st0" d="M342.8,54.8v-37c0.1-1.6-0.4-3-1.3-4.1c-1-1.1-2.4-1.7-4-1.7c-3.2,0-5.5,2.4-5.5,5.8v44.5h0.2v51.3H332v68.5
	l0,0.4c0.3,3.1,2.6,5.3,5.5,5.3c2.7,0,5.5-2,5.5-5.8V54.8H342.8z"/>
<path class="st0" d="M370.8,54.8v-37c0.1-1.6-0.4-3-1.3-4.1c-1-1.1-2.4-1.7-4-1.7c-3.2,0-5.5,2.4-5.5,5.8v44.5h0.2v51.3H360v68.5
	l0,0.4c0.3,3.1,2.6,5.3,5.5,5.3c2.7,0,5.5-2,5.5-5.8V54.8H370.8z"/>
<g>
	<path class="st0" d="M345.1,254.6c-1.9,0-3.5-0.4-5-1.2s-2.7-1.9-3.5-3.4c-0.9-1.5-1.3-3-1.3-4.7c0-2.5,1-4.7,2.8-6.5
		s4.1-2.7,6.9-2.7c3.4,0,6.2,1.3,8.2,4l2.3-1.4c-0.7-1.1-1.5-2.1-2.4-2.9c-1-0.7-2.2-1.3-3.6-1.8c-1.4-0.5-2.9-0.7-4.4-0.7
		c-2.4,0-4.6,0.5-6.5,1.6c-2,1-3.5,2.5-4.6,4.4c-1.1,1.9-1.7,4-1.7,6.2c0,3.3,1.2,6.1,3.6,8.4c2.4,2.3,5.4,3.4,9,3.4
		c2.4,0,4.5-0.5,6.3-1.4s3.3-2.2,4.4-3.8l-2.3-1.5C351.2,253.3,348.5,254.6,345.1,254.6z"/>
	<path class="st0" d="M371.2,234.4c-1,0.6-1.9,1.6-2.8,2.9V234h-3v22.8h3v-7.7c0-4,0.1-6.6,0.5-7.9c0.5-1.6,1.2-2.9,2.1-3.7
		c0.9-0.8,1.8-1.2,2.8-1.2c0.5,0,1,0.1,1.6,0.4l1.5-2.5c-0.9-0.5-1.8-0.8-2.6-0.8C373.2,233.4,372.2,233.7,371.2,234.4z"/>
	<path class="st0" d="M438.2,238.2c-1.1-1.6-2.5-2.8-4-3.6s-3.2-1.2-5.1-1.2c-3.2,0-6,1.2-8.3,3.5s-3.5,5.1-3.5,8.4
		c0,3.4,1.1,6.3,3.4,8.6s5.1,3.5,8.3,3.5c1.8,0,3.5-0.3,5-1.1s2.9-1.9,4.1-3.4v3.9h2.9V234h-2.8V238.2z M437.2,250.1
		c-0.8,1.4-1.9,2.5-3.3,3.3c-1.5,0.8-3,1.2-4.6,1.2c-1.6,0-3.1-0.4-4.5-1.2c-1.4-0.8-2.5-1.9-3.3-3.4s-1.2-3-1.2-4.6
		c0-1.6,0.4-3.1,1.2-4.6s1.9-2.6,3.3-3.4c1.4-0.8,2.9-1.2,4.5-1.2c2.5,0,4.7,0.9,6.5,2.6c1.7,1.7,2.6,4,2.6,6.6
		C438.4,247.2,438,248.7,437.2,250.1z"/>
	<polygon class="st0" points="458.5,225.5 455.6,225.5 455.6,234 451.6,234 451.6,236.5 455.6,236.5 455.6,256.8 458.5,256.8 
		458.5,236.5 463.2,236.5 463.2,234 458.5,234 	"/>
	<path class="st0" d="M474.1,224.6c-0.7,0-1.2,0.2-1.7,0.7s-0.7,1-0.7,1.7s0.2,1.2,0.7,1.7s1,0.7,1.7,0.7s1.2-0.2,1.7-0.7
		s0.7-1,0.7-1.7s-0.2-1.2-0.7-1.7S474.8,224.6,474.1,224.6z"/>
	<rect x="472.6" y="234" class="st0" width="2.9" height="22.8"/>
	<polygon class="st0" points="495.7,250.7 488,234 484.9,234 495.5,256.8 496,256.8 506.4,234 503.3,234 	"/>
	<path class="st0" d="M536.6,240c-1.2-2.3-2.7-3.9-4.5-5c-2.1-1.3-4.1-1.9-6.4-1.9c-2.2,0-4.2,0.5-6.1,1.7c-1.9,1.1-3.3,2.5-4.4,4.4
		c-1.1,1.9-1.7,3.9-1.7,6.1s0.5,4.2,1.7,6.1c1.1,1.9,2.5,3.3,4.4,4.4c1.7,1.1,3.8,1.7,6,1.7c2.7,0,5.1-0.8,7.2-2.4
		c0.9-0.8,1.3-1.2,1.3-1.8c0-0.8-0.5-1.3-1.3-1.3c-0.5,0-0.9,0.3-1,0.5c-0.9,0.7-1.8,1.2-2.9,1.6c-1,0.4-2,0.6-3.2,0.6
		c-1.6,0-3.1-0.4-4.6-1.2c-1.5-0.9-2.6-2.1-3.4-3.5c-0.9-1.6-1.3-3.1-1.3-4.7c0-1.8,0.4-3.3,1.3-4.6c0.8-1.4,2-2.6,3.4-3.4
		c1.5-0.8,3-1.3,4.6-1.3c1.9,0,3.7,0.6,5.4,1.7c1.5,1,2.5,2.3,3.2,3.9c0.4,0.8,0.6,1.3,0.6,1.6c0,0.2,0.1,0.5,0.1,0.7h-16.2
		c-1.4,0-1.4,1.2-1.4,1.3c0,0.8,0.6,1.4,1.4,1.4h17.3c0.5,0,0.9-0.2,1.2-0.5l0,0c0.3-0.3,0.4-0.7,0.4-1.1
		C537.7,243.1,537.3,241.5,536.6,240z"/>
	<path class="st0" d="M403.1,234.9c-2.1-1.3-4.1-1.9-6.4-1.9c-2.2,0-4.2,0.5-6.1,1.7c-1.9,1.1-3.3,2.5-4.4,4.4
		c-1.1,1.9-1.7,3.9-1.7,6.1s0.5,4.2,1.7,6.1c1.1,1.9,2.5,3.3,4.4,4.4c1.7,1.1,3.8,1.7,6,1.7c2.7,0,5.1-0.8,7.2-2.4
		c0.9-0.8,1.3-1.2,1.3-1.8c0-0.8-0.5-1.3-1.3-1.3c-0.5,0-0.9,0.3-1,0.5c-0.9,0.7-1.8,1.2-2.9,1.6c-1,0.4-2,0.6-3.2,0.6
		c-1.6,0-3.1-0.4-4.6-1.2c-1.5-0.9-2.6-2.1-3.4-3.5c-0.9-1.6-1.3-3.1-1.3-4.7c0-1.8,0.4-3.3,1.3-4.6c0.8-1.4,2-2.6,3.4-3.4
		c1.5-0.8,3-1.3,4.6-1.3c1.9,0,3.7,0.6,5.4,1.7c1.5,1,2.5,2.3,3.2,3.9c0.2,0.4,0.4,0.9,0.5,1.4l0.1,0.3c0,0.2,0.1,0.4,0.1,0.6h-16.2
		c-1.4,0-1.4,1.2-1.4,1.3c0,0.8,0.6,1.4,1.4,1.4h17.3c0.5,0,0.9-0.2,1.2-0.5l0,0c0.3-0.3,0.4-0.7,0.4-1.1c0-1.8-0.4-3.4-1.1-4.9
		C406.4,237.7,404.9,236.1,403.1,234.9z"/>
</g>
</svg>
