<svg id="Calque_1" xmlns="http://www.w3.org/2000/svg" viewBox="0 0 55.7 49.9"><style>.st0{fill:#5a5f63}.st1{fill:#f55024}</style><title>WebDevelopment</title><path class="st0" d="M50.8 0H4.9C2.2 0 0 2.2 0 4.8v30.4c0 2.7 2.2 4.9 4.9 4.9h21.8v7.4H16.5c-.7 0-1.2.5-1.2 1.2s.5 1.2 1.2 1.2h22.8c.7 0 1.2-.5 1.2-1.2s-.5-1.2-1.2-1.2H29.1v-7.4h21.7c2.7 0 4.9-2.2 4.9-4.9V4.8C55.6 2.1 53.5 0 50.8 0zm2.4 35.3c0 1.3-1.1 2.4-2.4 2.4H4.9c-1.3 0-2.4-1.1-2.4-2.4V4.8c0-1.3 1.1-2.4 2.4-2.4h45.9c1.3 0 2.4 1.1 2.4 2.4v30.5z"/><path class="st1" d="M36 27.4c-.6 0-1.1-.5-1.1-1.1 0-.3.1-.6.3-.8l5.4-5.4-5.4-5.4c-.4-.4-.4-1.1 0-1.6s1.1-.4 1.6 0l6.2 6.2c.4.4.4 1.1 0 1.5L36.8 27c-.2.2-.5.4-.8.4zM19 27.4c-.3 0-.6-.1-.8-.3L12 20.8c-.4-.4-.4-1.1 0-1.5l6.2-6.2c.4-.4 1.1-.4 1.6 0 .4.4.4 1.1 0 1.6L14.4 20l5.4 5.5c.4.4.4 1.1 0 1.6-.2.1-.5.3-.8.3zM24.6 31c-.6 0-1.1-.5-1.1-1.1 0-.1 0-.2.1-.3L30.5 10c.1-.6.7-.9 1.3-.8.6.1.9.7.8 1.3 0 .1 0 .1-.1.2l-6.9 19.5c-.1.5-.5.8-1 .8z"/></svg>