<svg id="Calque_1" xmlns="http://www.w3.org/2000/svg" viewBox="0 0 45.6 49.6"><style>.st0{fill:#5a5f63}.st1{display:none}.st1,.st2{fill:#f55024}</style><title>WebDesign</title><path class="st0" d="M41.6 8.7H33c-.6 0-1 .4-1 1s.4 1 1 1h8.7c1.1 0 2 .9 2 2v24.9c0 1.1-.9 2-2 2H4c-1.1 0-2-.9-2-2v-25c0-1.1.9-2 2-2h8.9c.6 0 1-.4 1-1s-.4-1-1-1H4c-2.2 0-4 1.8-4 4v24.9c0 2.2 1.8 4 4 4h17.8v6h-8.3c-.6 0-1 .4-1 1s.4 1 1 1h18.6c.6 0 1-.4 1-1s-.4-1-1-1h-8.3v-6h17.8c2.2 0 4-1.8 4-4V12.7c0-2.2-1.8-4-4-4z"/><path class="st1" d="M28.5 3.9c0-2.2-1.8-3.9-3.9-3.9h-3.4c-2.2 0-3.9 1.8-3.9 3.9V26.3c0 .2.1.4.2.6l4.6 6.1c.3.4 1 .5 1.4.2l.2-.2 4.6-6.1c.1-.2.2-.4.2-.6V6.6v-.2-2.5zm-9.3 3.4h2.6v17.8h-2.6V7.3zm3.6 23.4l-2.7-3.6h5.5l-2.8 3.6zm3.7-5.6h-2.6V7.3h2.6v17.8zm0-19.8h-7.3V3.9c0-1 .8-1.9 1.9-1.9h3.4c1.1 0 1.9.9 1.9 1.9l.1 1.4z"/><path class="st2" d="M26.6.9H19c-2 0-3.7 1.6-3.7 3.7v18.3c0 2 1.6 3.7 3.7 3.7h7.5c2 0 3.7-1.7 3.7-3.7V4.6c0-2.1-1.6-3.7-3.6-3.7zm-7.6 2h7.5c.9 0 1.7.7 1.7 1.7v15H17.4v-15c0-1 .7-1.7 1.6-1.7zm7.6 21.7H19c-.9 0-1.7-.7-1.7-1.7v-1.5h10.9v1.5c0 .9-.7 1.7-1.6 1.7z"/></svg>