<svg id="Calque_1" xmlns="http://www.w3.org/2000/svg" viewBox="0 0 55.7 45.1"><style>.st0{fill:#5a5f63}.st1{fill:#f55024}</style><title>SEO</title><path class="st0" d="M20.4 40.7C9.1 40.7 0 31.6 0 20.3S9.2 0 20.4 0s20.3 9.1 20.3 20.4c0 11.2-9.1 20.3-20.3 20.3zm0-39.1C10 1.6 1.6 10 1.6 20.4S10 39.1 20.4 39.1s18.8-8.4 18.8-18.7C39.1 10 30.7 1.6 20.4 1.6z"/><path class="st0" d="M20.4 33.7c-7.4 0-13.3-6-13.3-13.4S13.1 7 20.4 7c7.4 0 13.3 6 13.3 13.3 0 7.4-5.9 13.4-13.3 13.4zm0-25.1c-6.5 0-11.7 5.3-11.7 11.7S14 32 20.4 32s11.7-5.3 11.7-11.7c0-6.4-5.3-11.7-11.7-11.7z"/><path class="st0" d="M20.4 25.7c-3 0-5.3-2.4-5.3-5.4s2.4-5.3 5.4-5.3c2.9 0 5.3 2.4 5.3 5.4 0 2.9-2.4 5.3-5.4 5.3zm0-9.1c-2.1 0-3.8 1.7-3.8 3.8s1.7 3.8 3.8 3.8 3.8-1.7 3.8-3.8c-.1-2.1-1.8-3.8-3.8-3.8z"/><path class="st1" d="M50.4 21.2H20.8c-.4 0-.8-.4-.8-.8s.4-.8.8-.8h29.6c.4 0 .8.4.8.8s-.4.8-.8.8z"/><path class="st1" d="M49.9 26.2c-.2 0-.4-.1-.6-.2l-5-5c-.3-.3-.3-.8 0-1.1l5-5c.3-.3.8-.3 1.1.1.3.3.3.8 0 1.1L46 20.4l4.5 4.5c.3.3.3.8 0 1.1-.2.2-.4.2-.6.2z"/><path class="st1" d="M54.9 26.2c-.2 0-.4-.1-.6-.2l-5-5c-.3-.3-.3-.8 0-1.1l5-5c.3-.3.8-.3 1.1.1.3.3.3.8 0 1.1L51 20.4l4.5 4.5c.3.3.3.8 0 1.1-.1.2-.4.2-.6.2z"/><path class="st0" d="M5.3 45.1c-.4 0-.8-.4-.8-.8 0-.2 0-.3.1-.5l5-7c.3-.4.8-.4 1.1-.1.4.3.4.8.1 1.1l-5 7c0 .2-.2.3-.5.3zM35.9 45.1c-.3 0-.5-.1-.7-.3l-5-7c-.3-.4-.2-.9.2-1.1.4-.3.9-.2 1.1.2l5 7c.3.4.2.9-.2 1.1-.1.1-.2.1-.4.1z"/></svg>